<svg version="1.1" viewBox="0.0 0.0 960.0 540.0" fill="none" stroke="none" stroke-linecap="square" stroke-miterlimit="10" xmlns:xlink="http://www.w3.org/1999/xlink" xmlns="http://www.w3.org/2000/svg"><clipPath id="p.0"><path d="m0 0l960.0 0l0 540.0l-960.0 0l0 -540.0z" clip-rule="nonzero"/></clipPath><g clip-path="url(#p.0)"><path fill="#ffffff" d="m0 0l960.0 0l0 540.0l-960.0 0z" fill-rule="evenodd"/><path fill="#209cee" d="m0 0l960.0 0l0 540.0l-960.0 0z" fill-rule="evenodd"/><path stroke="#595959" stroke-width="1.0" stroke-linejoin="round" stroke-linecap="butt" d="m0 0l960.0 0l0 540.0l-960.0 0z" fill-rule="evenodd"/><path fill="#000000" fill-opacity="0.0" d="m0 0l960.0 0l0 540.0l-960.0 0z" fill-rule="evenodd"/><path fill="#ffffff" d="m320.1551 314.6469q6.125 0 6.125 16.546875q0 9.0 -7.5625 21.78125q-7.5625 12.78125 -19.625 23.40625q-12.046875 10.625 -26.8125 17.46875q-14.765625 6.828125 -28.796875 6.828125q-21.25 0 -29.34375 -10.609375q-8.09375 -10.625 -8.09375 -31.328125q0 -20.703125 16.1875 -71.09375q-49.671875 -2.171875 -72.359375 -2.171875l-5.03125 0q-6.484375 39.96875 -6.484375 83.890625q0 19.4375 -14.765625 26.640625q-6.828125 3.234375 -13.140625 6.109375q-6.296875 2.890625 -13.484375 2.890625q-18.0 0 -18.0 -32.40625q0 -32.40625 14.75 -83.15625q-15.84375 1.796875 -27.90625 3.59375q-12.046875 1.796875 -18.890625 1.796875q-6.84375 0 -6.84375 -3.59375q0 -10.796875 17.640625 -21.953125q18.0 -11.171875 48.609375 -16.921875q33.828125 -86.046875 82.796875 -114.84375q18.0 -10.796875 38.15625 -10.796875q36.0 0.359375 52.015625 19.4375q16.03125 19.078125 16.203125 50.578125q0.1875 31.5 -19.265625 81.90625q-7.1875 19.4375 -13.3125 35.28125q-6.125 15.828125 -6.125 25.546875q0 9.71875 1.4375 14.765625q1.453125 5.046875 6.84375 5.046875q9.71875 0 45.71875 -37.453125q6.484375 -7.1875 9.359375 -7.1875zm-76.671875 -107.28125q0 -31.328125 -23.40625 -31.328125q-23.75 0 -40.859375 19.984375q-17.09375 19.984375 -26.453125 53.453125l81.71875 1.078125q9.0 -28.796875 9.0 -43.1875zm145.07492 193.3125q-51.484375 0.359375 -70.203125 -38.515625q-6.46875 -13.6875 -6.46875 -34.375q0 -20.703125 3.59375 -44.109375q7.203125 -46.796875 27.71875 -86.390625q10.4375 -20.171875 23.40625 -34.5625q28.4375 -31.6875 63.359375 -31.328125q15.46875 0 24.28125 8.46875q8.828125 8.453125 8.828125 24.296875q0 15.84375 -9.359375 31.859375q-9.359375 16.015625 -23.9375 33.125q-14.578125 17.09375 -32.21875 35.8125q-17.640625 18.71875 -34.5625 40.6875l0 14.390625q0 20.15625 8.640625 29.515625q8.640625 9.359375 20.15625 9.359375q30.96875 0 54.734375 -30.59375q9.71875 -12.59375 14.75 -12.59375q5.046875 0 5.046875 12.234375q0 12.234375 -6.671875 25.015625q-6.65625 12.78125 -17.453125 23.40625q-10.796875 10.625 -24.84375 17.46875q-14.03125 6.828125 -28.796875 6.828125zm19.4375 -193.3125q7.5625 -9.359375 11.875 -16.921875q4.328125 -7.5625 4.328125 -15.65625q0 -8.109375 -5.765625 -8.109375q-12.59375 0 -27.890625 25.921875q-15.296875 25.921875 -22.859375 68.046875q12.234375 -18.734375 22.484375 -31.328125q10.265625 -12.59375 17.828125 -21.953125zm119.15933 17.828125q24.125 -0.1875 36.0 9.0q11.890625 9.171875 11.890625 26.265625q0 17.09375 -10.265625 29.15625q-10.265625 12.0625 -25.015625 17.109375q10.4375 10.796875 18.890625 21.953125q8.46875 11.15625 8.46875 23.40625q0 24.109375 -19.078125 37.25q-19.078125 13.140625 -53.109375 13.140625q-34.015625 0 -50.9375 -13.5q-16.921875 -13.5 -16.921875 -30.59375q0 -17.09375 8.453125 -31.140625q8.46875 -14.046875 18.1875 -14.046875q5.765625 0 8.28125 4.140625q2.515625 4.140625 9.359375 23.953125q2.515625 7.1875 8.28125 13.671875q13.328125 14.765625 42.125 14.765625q-4.328125 -13.6875 -13.875 -23.578125q-9.53125 -9.90625 -18.890625 -19.265625q-9.359375 -9.359375 -16.5625 -19.96875q-7.203125 -10.625 -7.203125 -25.03125q0 -25.921875 19.453125 -42.125q18.359375 -14.390625 42.46875 -14.5625zm-1.4375 66.765625q14.40625 -15.484375 14.40625 -24.84375q0 -4.3125 -3.0625 -7.734375q-3.0625 -3.421875 -8.828125 -3.421875q-5.75 0 -10.96875 1.4375q-5.21875 1.4375 -8.46875 2.15625q0 13.6875 16.921875 32.40625zm147.60999 68.40625q28.078125 0 54.359375 -22.328125q9.71875 -8.28125 15.828125 -15.296875q6.125 -7.015625 9.359375 -7.015625q5.046875 0 5.046875 10.078125q0 10.078125 -5.40625 22.5q-5.390625 12.421875 -18.0 24.296875q-30.953125 29.15625 -84.953125 29.15625q-42.84375 0 -58.328125 -30.953125q-5.390625 -10.796875 -5.390625 -30.953125q0 -20.171875 7.921875 -41.953125q7.921875 -21.78125 21.046875 -37.609375q13.140625 -15.84375 30.421875 -24.65625q17.28125 -8.828125 36.90625 -8.828125q19.625 0 30.234375 9.71875q10.625 9.71875 10.625 25.203125q0 15.46875 -7.75 25.375q-7.734375 9.90625 -19.96875 16.5625q-12.234375 6.65625 -27.1875 11.875q-14.9375 5.21875 -29.328125 11.703125l0 9.0q0.359375 12.953125 10.796875 18.359375q10.4375 5.40625 23.765625 5.765625zm-6.125 -101.53125q-18.71875 0 -25.921875 43.5625q7.5625 -5.03125 14.21875 -8.984375q6.65625 -3.96875 11.703125 -7.578125q10.796875 -7.921875 11.15625 -18.0q0 -9.0 -11.15625 -9.0zm177.83936 61.921875q9.71875 38.53125 32.765625 38.53125q11.15625 0 20.15625 -6.84375q9.0 -6.84375 16.1875 -14.9375q7.203125 -8.109375 12.609375 -14.9375q5.40625 -6.84375 10.078125 -6.84375q4.6875 0 4.6875 12.234375q0 25.5625 -23.765625 49.328125q-23.765625 23.75 -53.109375 23.5625q-29.328125 -0.171875 -52.375 -51.65625q-6.46875 -14.390625 -12.234375 -29.15625l-2.515625 49.328125q0 6.828125 -0.734375 13.5q-0.71875 6.65625 -6.109375 10.96875q-14.046875 11.171875 -28.4375 11.171875q-16.921875 0 -16.921875 -34.921875q0 -50.40625 11.875 -105.484375q11.875 -55.078125 23.21875 -82.96875q11.34375 -27.90625 17.640625 -37.265625q6.296875 -9.359375 9.890625 -11.515625q3.609375 -2.171875 8.109375 -2.171875q4.5 0 9.53125 4.5q5.046875 4.5 10.8125 13.6875q5.765625 9.171875 5.9375 18.0q0.1875 8.8125 -2.875 17.28125q-3.0625 8.453125 -8.109375 16.5625q-5.03125 8.09375 -11.15625 16.5625q-6.125 8.453125 -12.234375 18.171875l-3.609375 30.234375q12.609375 -26.28125 37.078125 -35.28125q8.640625 -3.234375 20.171875 -3.234375q23.03125 0 35.265625 10.984375q12.25 10.96875 12.25 32.21875q0 21.234375 -21.25 36.0q-21.234375 14.75 -42.828125 14.390625zm13.671875 -42.109375q0 -12.96875 -14.765625 -12.96875q-14.75 0 -32.03125 28.4375q-5.03125 8.28125 -8.640625 16.921875q37.4375 -2.15625 51.125 -20.15625q4.3125 -5.765625 4.3125 -12.234375z" fill-rule="nonzero"/></g></svg>